<?xml version="1.0" encoding="UTF-8" standalone="no"?>
<!--Generator: Gravit.io-->
<svg xmlns="http://www.w3.org/2000/svg" xmlns:xlink="http://www.w3.org/1999/xlink" style="isolation:isolate" viewBox="0 0 131 131">
    <defs>
        <clipPath id="_clipPath_dLGTVGnn7RCqwl5l41fXCB6VkB1wnnty">
            <rect width="131" height="131"/>
        </clipPath>
    </defs>
    <g clip-path="url(#_clipPath_dLGTVGnn7RCqwl5l41fXCB6VkB1wnnty)">
        <circle vector-effect="non-scaling-stroke" cx="65.5" cy="65.5" r="64" fill="rgb(42,90,241)"/>
        <g>
            <mask id="_mask_hTHzGmXB7J77Bg2maLxY6Vz5Cm5ZVOsT">
                <path d=" M 63.419 4.368 C 64.11 4.345 64.804 4.333 65.5 4.333 C 99.259 4.333 126.667 31.741 126.667 65.5 C 126.667 99.259 99.259 126.667 65.5 126.667 C 49.022 126.667 34.056 120.136 23.053 109.525 L 63.419 4.368 Z " fill="white" stroke="none"/>
            </mask>
            <path d=" M 63.419 4.368 C 64.11 4.345 64.804 4.333 65.5 4.333 C 99.259 4.333 126.667 31.741 126.667 65.5 C 126.667 99.259 99.259 126.667 65.5 126.667 C 49.022 126.667 34.056 120.136 23.053 109.525 L 63.419 4.368 Z " fill="rgb(42,90,241)" mask="url(#_mask_hTHzGmXB7J77Bg2maLxY6Vz5Cm5ZVOsT)" vector-effect="non-scaling-stroke" stroke-width="1" stroke="rgb(255,255,255)" stroke-linejoin="round" stroke-linecap="round" stroke-miterlimit="1"/>
            <path d=" M 63.419 4.368 C 64.11 4.345 64.804 4.333 65.5 4.333 C 99.259 4.333 126.667 31.741 126.667 65.5 C 126.667 99.259 99.259 126.667 65.5 126.667 C 49.022 126.667 34.056 120.136 23.053 109.525 L 63.419 4.368 Z " fill="rgb(42,90,241)"/>
            <clipPath id="_clipPath_eXBwt6USMdLoGNsb8TCe1Pp6oNLRxuGb">
                <path d=" M 63.419 4.368 C 64.11 4.345 64.804 4.333 65.5 4.333 C 99.259 4.333 126.667 31.741 126.667 65.5 C 126.667 99.259 99.259 126.667 65.5 126.667 C 49.022 126.667 34.056 120.136 23.053 109.525 L 63.419 4.368 Z " fill="rgb(42,90,241)" mask="url(#_mask_hTHzGmXB7J77Bg2maLxY6Vz5Cm5ZVOsT)" vector-effect="non-scaling-stroke" stroke-width="1" stroke="rgb(255,255,255)" stroke-linejoin="round" stroke-linecap="round" stroke-miterlimit="1"/>
                <path d=" M 63.419 4.368 C 64.11 4.345 64.804 4.333 65.5 4.333 C 99.259 4.333 126.667 31.741 126.667 65.5 C 126.667 99.259 99.259 126.667 65.5 126.667 C 49.022 126.667 34.056 120.136 23.053 109.525 L 63.419 4.368 Z " fill="rgb(42,90,241)"/>
            </clipPath>
            <g clip-path="url(#_clipPath_eXBwt6USMdLoGNsb8TCe1Pp6oNLRxuGb)">
                <g>
                    <path d=" M 68.412 4.333 L 85.235 48.157 L 90.199 61.088 L 83.42 63.691 L 65.511 17.037 L 47.932 62.83 L 41.154 60.228 L 62.588 4.391 L 62.588 4.333 L 68.412 4.333 L 68.412 4.333 Z " fill="#a0c9ff"/>
                    <path d=" M 65.805 80.561 L 83.213 63.153 L 89.294 58.732 L 109.396 111.099 L 102.617 113.701 L 86.062 70.573 L 86.062 70.573 L 65.808 90.827 L 65.126 90.145 L 65.123 90.148 L 45.124 70.148 L 28.383 113.759 L 21.604 111.156 L 41.871 58.359 L 41.871 58.359 L 41.871 58.359 L 47.972 62.728 L 65.805 80.561 Z " fill="rgb(10,0,13)" fill-opacity="0.8"/>
                </g>
            </g>
            <path d=" M 63.419 4.368 C 64.11 4.345 64.804 4.333 65.5 4.333 C 99.259 4.333 126.667 31.741 126.667 65.5 C 126.667 99.259 99.259 126.667 65.5 126.667 C 49.022 126.667 34.056 120.136 23.053 109.525 L 63.419 4.368 Z " fill="transparent" mask="url(#_mask_hTHzGmXB7J77Bg2maLxY6Vz5Cm5ZVOsT)" vector-effect="non-scaling-stroke" stroke-width="2" stroke="rgb(255,255,255)" stroke-linejoin="round" stroke-linecap="round" stroke-miterlimit="1"/>
            <mask id="_mask_DaB8nR53r0ozJ7V7inaR8dJ793T1EdS3">
                <path d=" M 59.165 4.658 C 28.378 7.832 4.333 33.88 4.333 65.5 C 4.333 81.248 10.297 95.613 20.088 106.459 L 59.165 4.658 Z " fill="white" stroke="none"/>
            </mask>
            <path d=" M 59.165 4.658 C 28.378 7.832 4.333 33.88 4.333 65.5 C 4.333 81.248 10.297 95.613 20.088 106.459 L 59.165 4.658 Z " fill="rgb(255,255,255)" mask="url(#_mask_DaB8nR53r0ozJ7V7inaR8dJ793T1EdS3)" vector-effect="non-scaling-stroke" stroke-width="1" stroke="rgb(255,255,255)" stroke-linejoin="round" stroke-linecap="round" stroke-miterlimit="1"/>
            <path d=" M 59.165 4.658 C 28.378 7.832 4.333 33.88 4.333 65.5 C 4.333 81.248 10.297 95.613 20.088 106.459 L 59.165 4.658 Z " fill="rgb(255,255,255)"/>
        </g>
    </g>
</svg>
